<?xml version="1.0" encoding="UTF-8" standalone="no"?>
<svg
   xmlns:dc="http://purl.org/dc/elements/1.1/"
   xmlns:cc="http://creativecommons.org/ns#"
   xmlns:rdf="http://www.w3.org/1999/02/22-rdf-syntax-ns#"
   xmlns:svg="http://www.w3.org/2000/svg"
   xmlns="http://www.w3.org/2000/svg"
   xmlns:sodipodi="http://sodipodi.sourceforge.net/DTD/sodipodi-0.dtd"
   xmlns:inkscape="http://www.inkscape.org/namespaces/inkscape"
   width="335.89832"
   height="408.2959"
   version="1.1"
   viewBox="0 0 335.89832 408.2959"
   id="svg1008"
   sodipodi:docname="georgia-hometown-heart-dddddd.svg"
   inkscape:version="1.0.1 (3bc2e813f5, 2020-09-07)">
  <defs
     id="defs1012" />
  <sodipodi:namedview
     pagecolor="#ffffff"
     bordercolor="#666666"
     borderopacity="1"
     objecttolerance="10"
     gridtolerance="10"
     guidetolerance="10"
     inkscape:pageopacity="0"
     inkscape:pageshadow="2"
     inkscape:window-width="1366"
     inkscape:window-height="705"
     id="namedview1010"
     showgrid="false"
     inkscape:showpageshadow="false"
     inkscape:zoom="0.87377335"
     inkscape:cx="242.18442"
     inkscape:cy="243.00003"
     inkscape:window-x="-8"
     inkscape:window-y="-8"
     inkscape:window-maximized="1"
     inkscape:current-layer="g1006"
     fit-margin-top="10"
     fit-margin-left="10"
     fit-margin-right="10"
     fit-margin-bottom="20"
     inkscape:document-rotation="0" />
  <metadata
     id="metadata998">
    <rdf:RDF>
      <cc:Work
         rdf:about="">
        <dc:format>image/svg+xml</dc:format>
        <dc:type
           rdf:resource="http://purl.org/dc/dcmitype/StillImage" />
        <dc:title></dc:title>
      </cc:Work>
    </rdf:RDF>
  </metadata>
  <g
     transform="translate(77.917818,-4.9878226)"
     id="g1006">
    <path
       d="m 168.87115,392.31302 c -1.8985,-1.37528 -2.75299,-2.91506 -3.15154,-5.67889 -0.81171,-5.62942 -1.8351,-7.84218 -4.38582,-9.48326 -1.31761,-0.84768 -1.20204,-0.83598 -17.31676,-1.75404 -6.73374,-0.38363 -21.35131,-1.31672 -32.48302,-2.07352 -11.13236,-0.75681 -26.54921,-1.73343 -34.259914,-2.17023 -7.711139,-0.4368 -17.352556,-1.05652 -21.425301,-1.3771 -7.918985,-0.62332 -16.370385,-1.19403 -24.980599,-1.68675 -2.932411,-0.16792 -9.507989,-0.56606 -14.612588,-0.88495 -5.104599,-0.31891 -13.3240712,-0.80513 -18.2657345,-1.08052 -18.7256865,-1.04348 -19.4012955,-1.16261 -22.1124085,-3.89917 -1.555939,-1.57048 -2.126714,-2.81396 -3.152407,-6.86761 -1.878187,-7.42236 -4.980281,-15.68501 -8.628004,-22.98024 -2.423644,-4.84772 -2.541886,-5.35172 -2.530387,-10.78587 0.0098,-4.62404 0.116225,-5.59536 1.168994,-10.6633 0.259461,-1.24898 0.753236,-3.87032 1.097311,-5.82533 0.344074,-1.95493 0.763802,-4.07166 0.932726,-4.70388 0.405495,-1.51741 0.130023,-3.84754 -0.949627,-8.03289 -0.671313,-2.6022 -1.026214,-3.53403 -2.369404,-6.2202 -2.164161,-4.32832 -2.27264,-4.84923 -2.004631,-9.62796 0.121735,-2.17089 0.349086,-4.30793 0.530268,-4.98484 0.174435,-0.65164 0.932835,-2.61782 1.685334,-4.36933 0.752498,-1.75146 1.58397,-3.92912 1.847726,-4.83926 0.445807,-1.53838 0.582729,-2.42494 1.11085,-7.19304 0.250066,-2.25767 0.640092,-3.59782 1.51949,-5.22132 0.937369,-1.73033 1.634175,-2.57052 4.913242,-5.92405 4.595397,-4.69976 4.786755,-5.62704 1.985669,-9.62428 -2.113176,-3.01572 -2.488514,-4.37952 -2.100288,-7.63108 0.281677,-2.35921 0.05879,-3.98878 -0.880917,-6.44063 -0.74944,-1.95545 -3.156746,-6.82269 -4.122211,-8.33489 -1.629619,-2.55209 -3.367847,-6.9468 -3.599124,-9.10011 -0.07246,-0.67422 -0.378267,-2.02559 -0.679579,-3.00314 -0.301312,-0.97746 -0.607354,-2.04379 -0.680122,-2.36962 -0.07275,-0.32583 -0.429534,-1.34772 -0.792896,-2.2709 -0.363362,-0.92318 -0.766558,-2.20365 -0.896039,-2.84563 -0.129481,-0.64185 -0.394712,-1.53861 -0.589389,-1.99274 -0.194677,-0.45416 -0.50649,-1.52848 -0.692944,-2.38742 -0.186454,-0.85891 -0.726637,-2.89466 -1.200409,-4.52358 -0.896712,-3.08341 -1.661056,-6.89364 -1.660796,-8.27892 8.3e-5,-0.44257 -0.128353,-1.51558 -0.285387,-2.38437 -0.331665,-1.83491 -0.683506,-5.0061 -0.898252,-8.09624 -0.08303,-1.19468 -0.247853,-2.58051 -0.366291,-3.07929 -0.118437,-0.49896 -0.35746,-2.0096 -0.531157,-3.357 -0.173697,-1.34734 -0.752868,-4.19685 -1.28702,-6.33215 -0.922616,-3.6883 -0.986119,-4.11592 -1.269836,-8.54773 -0.519789,-8.12011 -1.015626,-11.88716 -2.189762,-16.6366 -0.424978,-1.71909 -0.803484,-3.93432 -0.978504,-5.72661 -0.255643,-2.61804 -0.49894,-3.99725 -1.560496,-8.84714 -0.166407,-0.76026 -0.304111,-1.84887 -0.305998,-2.41908 -0.01085,-3.29582 -1.387233,-13.729354 -2.271122,-17.215877 -0.621499,-2.451848 -1.086614,-5.438715 -1.088177,-6.988232 -6.33e-4,-0.632456 -0.349064,-2.942825 -0.774259,-5.134106 -0.494666,-2.549262 -0.819409,-4.873321 -0.901658,-6.452562 -0.159703,-3.066057 -0.573573,-6.484889 -0.970629,-8.017918 -0.549122,-2.12014 -0.877857,-3.904168 -1.106011,-6.002373 -0.124013,-1.140377 -0.702229,-4.91693 -1.284915,-8.392388 -0.582685,-3.475458 -1.157039,-7.074365 -1.276323,-7.997523 -0.119284,-0.92318 -0.477526,-3.455715 -0.796108,-5.627903 -0.871478,-5.942059 -1.31134,-9.465682 -2.003676,-16.05124 -0.493451,-4.693896 -0.577066,-6.031879 -0.38866,-6.220199 0.311206,-0.311097 142.582944,-0.319623 150.098386,-0.0087 4.389504,0.181378 4.925174,0.241649 5.778906,0.649466 0.517576,0.247224 1.118334,0.698476 1.33501,1.00276 0.326783,0.458932 0.784718,2.090851 0.784718,2.796378 0,0.100452 -0.822295,1.043635 -1.827311,2.09584 -4.78003,5.004365 -7.075233,8.40866 -7.941115,11.778676 -0.399117,1.553163 -0.381521,2.581806 0.06893,4.029136 0.867812,2.788351 3.57157,5.343905 10.094427,9.541183 1.357596,0.873562 3.73928,2.622378 5.292485,3.886378 5.446744,4.431811 7.391994,5.484927 11.255584,6.092194 2.17588,0.342057 3.06302,0.728481 4.30945,1.877537 1.33685,1.232259 2.10669,2.417568 3.11856,4.801074 0.50877,1.198544 1.40908,3.064539 2.00068,4.146727 2.81569,5.150812 5.05622,9.853387 5.51964,11.585149 0.40242,1.503696 0.71169,2.133136 1.95695,3.982924 0.81344,1.208329 2.0721,2.907895 2.79703,3.776596 0.77243,0.925806 1.70267,2.356386 2.24725,3.455715 0.51107,1.031768 1.42878,2.682475 2.03937,3.668334 3.17649,5.128248 4.57479,6.418714 15.70519,14.494134 2.62129,1.90183 5.7481,4.83318 7.14726,6.70054 0.52151,0.69603 1.72678,2.69549 2.67836,4.44309 1.67283,3.07214 1.80917,3.25612 4.1157,5.55175 1.92932,1.92004 2.99251,2.7762 5.55804,4.47586 3.40039,2.25289 5.91559,4.5149 7.24251,6.51396 1.15728,1.74352 2.69983,5.32264 3.23832,7.51371 0.27419,1.11564 0.77268,2.51715 1.1077,3.11443 0.76018,1.3553 2.56358,3.87185 3.8905,5.42874 0.55461,0.65074 1.36218,1.77873 1.7946,2.50652 2.28175,3.8406 7.79835,9.91696 11.4272,12.58598 1.52997,1.12534 5.15341,3.01529 8.00794,4.17667 1.55733,0.63362 3.02071,2.0982 3.86338,3.86641 0.51564,1.08208 0.69904,1.82039 0.91903,3.69958 0.3561,3.04241 0.79023,4.28406 2.43146,6.95417 3.09513,5.03561 3.30493,5.69386 3.56484,11.18855 0.35707,7.54798 0.86666,9.8779 2.62715,12.01234 1.31314,1.592 2.37027,2.47311 5.40162,4.50276 4.54766,3.04479 6.85111,5.9158 8.92415,11.12302 0.31437,0.78969 1.11757,2.50218 1.78487,3.80545 1.41446,2.76254 1.89028,4.7707 1.68434,7.10887 -0.15057,1.71024 0.27894,4.71342 1.19371,8.3453 0.57036,2.2644 0.78467,2.80419 1.47813,3.72258 1.10287,1.46071 2.72066,2.68508 4.41424,3.34094 3.26956,1.26598 4.87419,2.37591 5.50858,3.81023 0.51093,1.15502 0.39809,2.24899 -0.43778,4.24435 -0.90843,2.16857 -1.7035,3.26566 -3.02289,4.17103 -1.02844,0.70583 -1.26204,0.78309 -2.36962,0.78383 -0.67576,0 -1.73124,-0.12323 -2.34553,-0.27474 -1.4223,-0.35086 -2.42408,-0.0853 -3.56615,0.94525 -1.94796,1.75773 -1.69996,2.85626 1.35072,5.9835 l 1.85124,1.89765 v 1.15014 c 0,1.68503 -0.57826,2.76904 -1.75253,3.28496 -0.5023,0.22078 -1.29096,0.58204 -1.75256,0.80279 -0.90735,0.4339 -3.58069,3.09926 -4.08316,4.07058 -0.39324,0.76046 -0.69651,2.8478 -0.70152,4.82841 -0.007,2.19519 -0.58155,3.33704 -2.65796,5.26971 -3.67918,3.42447 -4.0159,3.95016 -4.55309,7.10929 -0.1753,1.03177 -0.49779,2.45358 -0.71635,3.15957 -0.27009,0.87226 -0.44969,2.23272 -0.56055,4.24566 -0.0994,1.80533 -0.29557,3.38607 -0.50231,4.04779 -0.40252,1.2885 -1.49671,3.51234 -2.31473,4.70431 -1.04159,1.51791 -2.33859,4.52923 -2.97255,6.90167 -0.61624,2.30605 -0.6185,2.33252 -0.53805,6.36382 0.16272,8.15005 0.20307,7.59203 -0.68114,9.37977 -0.4298,0.86888 -1.11213,2.15735 -1.51633,2.8632 -0.40419,0.70596 -0.87631,1.779 -1.04916,2.38459 -0.32191,1.12769 -0.52383,5.23651 -0.57674,11.73442 -0.0217,2.57703 -0.0881,3.27347 -0.36415,3.77768 -0.54528,0.99601 -1.3679,1.8766 -2.31278,2.47593 -1.04623,0.6635 -1.93073,0.7108 -4.75377,0.25421 -2.62629,-0.42474 -12.80402,-3.8931 -15.50733,-5.28467 -1.75391,-0.90279 -2.25007,-1.08504 -3.89831,-1.43171 -1.26254,-0.26558 -1.42255,-0.25775 -2.57161,0.12583 -1.91114,0.63799 -3.60845,1.68182 -5.2287,3.21576 -2.15849,2.04336 -2.73931,3.04263 -3.13721,5.39663 -0.47927,2.83651 -0.15925,7.11862 0.7203,9.63773 0.40256,1.15294 0.71173,2.57486 0.88018,4.04801 0.24039,2.10254 0.22492,2.57833 -0.20893,6.41763 -0.26098,2.30909 -0.60272,4.43875 -0.77112,4.80563 -0.41337,0.90036 -2.20234,2.75581 -3.0973,3.21229 -1.01964,0.5202 -1.7453,0.46858 -2.65253,-0.18854 z"
       id="path1000"
       style="fill:#041e42;fill-opacity:1;stroke:#bf0d3e;stroke-width:0.861048;stroke-miterlimit:4;stroke-dasharray:none"
       inkscape:connector-curvature="0" />
  </g>
</svg>
